<?xml version="1.0" standalone="no"?>
<!DOCTYPE svg PUBLIC "-//W3C//DTD SVG 20010904//EN"
 "http://www.w3.org/TR/2001/REC-SVG-20010904/DTD/svg10.dtd">
<svg version="1.0" xmlns="http://www.w3.org/2000/svg"
 width="469.000000pt" height="532.000000pt" viewBox="0 0 469.000000 532.000000"
 preserveAspectRatio="xMidYMid meet">

<g transform="translate(0.000000,532.000000) scale(0.100000,-0.100000)"
fill="#000000" stroke="none">
<path d="M2195 4763 c-66 -5 -206 -33 -271 -53 -235 -74 -499 -257 -663 -461
-67 -83 -210 -319 -222 -364 -5 -22 -23 -74 -38 -115 -26 -68 -62 -192 -67
-230 -1 -8 -7 -40 -13 -70 -54 -256 -52 -620 4 -905 15 -78 65 -251 90 -310 7
-16 16 -41 20 -55 12 -40 83 -178 113 -218 42 -58 163 -211 201 -253 18 -22
68 -63 110 -93 43 -30 84 -60 92 -68 27 -24 115 -67 200 -97 123 -43 304 -91
347 -91 l37 0 -25 -20 c-14 -11 -38 -25 -55 -31 -16 -6 -59 -25 -95 -42 -200
-92 -311 -132 -325 -119 -4 4 -19 8 -33 8 -15 1 -65 10 -112 20 -96 21 -269
23 -340 4 -48 -13 -110 -68 -110 -97 1 -51 64 -81 188 -89 108 -8 282 17 360
52 l56 24 80 -26 c45 -15 110 -41 146 -59 36 -18 83 -38 105 -45 22 -7 80 -33
129 -57 49 -23 96 -43 103 -43 8 0 61 -23 119 -50 58 -28 108 -50 110 -50 5 0
99 -39 169 -70 11 -5 36 -12 55 -16 19 -3 41 -10 50 -15 103 -55 376 -100 565
-92 125 5 298 28 350 46 99 35 222 120 281 194 22 26 41 50 44 53 50 49 118
174 161 293 46 127 48 152 17 161 -39 10 -47 7 -64 -26 -57 -112 -167 -206
-329 -283 -231 -109 -574 -111 -1155 -5 -30 6 -97 17 -148 25 -51 9 -103 20
-115 25 -12 6 -65 17 -117 25 -52 8 -124 21 -160 29 -36 8 -95 17 -132 21 -66
6 -87 19 -50 31 21 8 173 70 227 94 177 79 293 113 437 129 151 17 224 36 439
117 53 19 138 71 181 110 20 18 49 39 65 48 33 17 168 156 234 241 121 156
187 283 257 495 95 290 118 454 109 773 -9 291 -31 417 -116 670 -73 216 -147
340 -315 522 -91 99 -242 209 -383 279 -73 36 -246 91 -383 120 -70 15 -289
20 -415 9z m310 -98 c140 -36 309 -137 401 -241 141 -158 167 -197 262 -409
73 -161 102 -253 138 -430 54 -274 54 -722 0 -1027 -39 -212 -54 -265 -131
-453 -66 -161 -78 -187 -114 -235 -133 -179 -217 -257 -333 -313 -214 -102
-275 -116 -449 -100 -128 11 -150 19 -299 106 -131 76 -144 85 -195 143 -138
156 -194 237 -236 338 -24 55 -49 110 -56 122 -33 52 -99 299 -129 481 -21
130 -31 601 -15 715 46 334 82 478 173 692 137 323 360 539 628 611 69 18 283
18 355 0z"/>
</g>
</svg>
